<?xml version="1.0" encoding="UTF-8"?>
<svg id="Layer_3" xmlns="http://www.w3.org/2000/svg" version="1.1" viewBox="0 0 565.3 661.9">
  <!-- Generator: Adobe Illustrator 30.0.0, SVG Export Plug-In . SVG Version: 2.1.1 Build 123)  -->
  <defs>
    <style>
      .st0 {
        fill: #171717;
      }
    </style>
  </defs>
  <g id="Layer_1">
    <g>
      <path class="st0" d="M283,566c-15.8,0-31.5-2.4-46.6-7.3-14.6-4.7-28.4-11.7-40.9-20.6-12.3-8.8-23.3-19.4-32.4-31.5-9.2-12.1-16.6-25.6-21.7-39.9-5.3-14.8-8.2-30.4-8.6-46.2,0-3.2,0,27.7,0,24.5,0-5.4,0-10.9,0-16.3,0-8.3,0-16.5,0-24.8v-30.7c0-11.3,0-22.6,0-33.9,0-11.6,0-23.1,0-34.7,0-10.9,0-21.7,0-32.6,0-9.3,0-18.7,0-28v-20.9c0-3.7,0,30.6,0,26.9,0-9.7.8-19.3,2.6-28.9,2.8-15,8.1-29.6,15.4-43,7.3-13.3,16.6-25.5,27.5-36.1,10.9-10.5,23.4-19.4,36.9-26.2,13.8-7,28.8-11.7,44.1-14.1,15.7-2.4,31.8-2.4,47.6.2,15.3,2.5,30.1,7.4,43.9,14.4,13.6,6.9,26,15.9,36.9,26.5,10.8,10.6,20,22.8,27.2,36.1,7.3,13.6,12.5,28.4,15.3,43.6,1.7,9.3,2.4,18.7,2.4,28.2,0,3.8,0-30.5,0-26.7,0,7,0,14,0,21,0,9.4,0,18.8,0,28.1,0,10.9,0,21.8,0,32.8,0,11.5,0,23,0,34.6,0,11.3,0,22.7,0,34,0,10.2,0,20.4,0,30.6,0,8.2,0,16.4,0,24.7,0,5.4,0,10.8,0,16.2,0,3.4,0-27.2,0-23.8-.5,15.6-3.6,31.1-8.9,45.7-5.2,14.3-12.7,27.7-21.9,39.8-9.2,11.9-20.2,22.5-32.6,31.1-12.5,8.8-26.3,15.7-40.9,20.2-14.6,4.6-29.8,6.9-45.1,7-1.2,0-2,1-2.2,2.2s.2,2.8,1.5,2.7c16.1,0,32.2-2.4,47.5-7.4,14.8-4.8,28.8-11.9,41.5-20.9,12.6-9,23.8-19.8,33.2-32.1s17-26.2,22.4-40.8c5.6-15.2,8.6-31.3,9.3-47.4.1-3.6.1,26.7.1,23.1,0-5.4,0-10.8,0-16.2,0-8.3,0-16.6,0-24.9s0-20.6,0-30.8c0-11.4,0-22.8,0-34.1,0-11.7,0-23.4,0-35,0-10.9,0-21.8,0-32.8,0-9.4,0-18.7,0-28.1,0-6.9,0-13.9,0-20.8,0-3.6,0,30.8,0,27.3,0-10.7-1-21.3-3.1-31.8-3.1-15.4-8.7-30.3-16.3-44.1-7.5-13.5-17.1-25.8-28.2-36.5-11.1-10.6-23.9-19.6-37.6-26.4-14.1-7-29.4-11.9-45-14.2-16-2.4-32.4-2.3-48.4.3-15.5,2.6-30.6,7.6-44.6,14.7-13.7,7-26.4,16.2-37.5,27-11,10.8-20.5,23.3-27.9,36.8-7.5,13.9-12.9,28.9-15.9,44.5-1.9,10.1-2.8,20.3-2.8,30.6,0,3.7,0-30.6,0-26.9,0,7,0,14,0,21,0,9.4,0,18.8,0,28.3,0,11,0,22,0,33,0,11.6,0,23.3,0,34.9,0,11.4,0,22.7,0,34.1,0,10.3,0,20.5,0,30.8,0,8.2,0,16.5,0,24.7v15.9c0,4.1,0-25.9.2-21.8.8,16,4.1,31.9,9.7,46.9,5.5,14.6,13.2,28.2,22.8,40.5s20.8,22.8,33.5,31.6c12.8,8.9,26.9,15.8,41.8,20.4,14.6,4.6,30,6.9,45.3,6.9s2-1,2.2-2.2-.2-2.7-1.5-2.7Z"/>
      <g>
        <path class="st0" d="M146.9,212.4l.2-.5c.5-1.2,1.6-3.5,2-3.5.6,0,1.4-.3,1.9-.3.7,0,1.4.4,2.1.5,1.6.3,3.1.3,4.6.4h.5c2.7.1,5.3.3,7.9.3,1.5,0,3,0,4.5.2h.4c1.3.1,3.2.7,4.3-.2.1-.2.3-.3.4-.5.9-1.9-3.9-4.4-4.6-5.4-1.3-1.6-2.5-3.2-3.9-4.7-1.4-1.5-2.5-3.4-4.1-4.4-1.5-1-2.8-2.6-4.2-3.9-1-1.2-1.1-2.1-.7-3,.5-1,1.5-2,2.1-3.2.5-.9.9-1.6,1.7-1.3.3.1.5.4.8.6,2.7,2.9,5,6.4,7.6,9.3,2.6,2.7,5.3,5.6,7.8,8.3l2.3,2.5c1,1.1,1.9,2.3,3,3.3.9.9,2,1.5,2.9,2.4,1.2,1.2,3.1,2.5,3.9,3.9.3.9.4,1.5.2,1.9-.4.9-1.8,1-3.2,1.1-1.9,0-3.7.1-5.5-.3-1.6-.3-3.8-.3-5.5-.1-4.1.2-8-.4-12.1-.1-3.9.3-8,0-11.9.2-1.7,0-3.8.7-5.5.1-1.3-.6-.3-2.7,0-3.6Z"/>
        <path class="st0" d="M176,163.2c.2-.2.3-.4.4-.5.7-.8,1.7-1.5,2.4-2.3l.3-.4c.7-.8,1.2-.9,2.2,0l.3.3c.9,1,1.8,1.9,2.7,2.8.2.2.4.4.7.6l1,.9c2.8,2.6,5.2,5.5,8,8.1,4,3.6,8.3,6.7,12.2,10.3l.6.6c1.4,1.3,1.9,2.3.3,4.2l-.9,1c-1.1,1.2-2.1,2.1-3.8,1-.3-.2-.6-.4-.9-.7-1.2-1.1-2.2-2.5-3.5-3.6-3.1-2.8-6.2-5.8-9.3-8.6-2-1.8-3.9-3.8-5.8-5.6-1-.9-2-1.7-3.1-2.6-.7-.6-2.1-1.3-3.1-2.2-.6-.5-1-1.1-1.1-1.7-.1-.5,0-1,.3-1.5Z"/>
        <path class="st0" d="M224.2,145.4c2.2.7,4.2,1.7,6.6,2.1.9.2,2,.2,2.9.5.9.3,2.4.7,3.2,1.1.3-.3.6-.7.6-1.1.2-.8-.3-1.9-.9-2.9-.6-1.1-1.2-2.1-1.6-2.8-1-1.9-2.2-3.6-3.5-5.3-1.2-1.7-2.1-3.4-3.1-5.2-.5-1-1.4-1.9-1.9-2.9-.2-.5-.4-.9-.5-1.5-.2-1.2.2-1.8,1.1-2.3.5-.2,1-.5,1.6-.7,1.8-.7,3.7-1.4,4.7.5l.2.3c2,4.9,4.4,9.8,6.9,14.6,1.6,3,3.3,6,5.1,8.9,1.1,1.8,2.1,4,3.4,5.9.4.5,1.2,1.5,1.7,2.4.4.8.5,1.6-.4,2h-.2c-1.5.8-4.6-.8-6.1-1.2-1.8-.4-3.8-.8-5.6-1.5-3.8-1.4-7.7-2.4-11.6-3.6-2.1-.7-4.2-1.2-6.4-1.7h-.2c-1.3-.5-4-1.2-5.1-.6-1,.5-.2,2.6.9,4.8,1.4,2.6,3.4,5.4,3.9,6.3,1.1,1.9,2.1,3.7,3.1,5.6.4.7,1.3,1.7,1.8,2.7.5.9.7,1.8-.1,2.4-.4.4-1.2.9-2.2,1.4-1.2.6-2.6,1.3-3.3,1-.6-.2-1-.7-1.3-1.4-.7-1.3-1.1-3.2-1.5-4.1l-.9-1.7c-1.7-3.2-3.7-6.1-5.4-9.2-2-3.7-4.2-7.4-6.5-10.9-.3-.5-.7-1-.9-1.4-.6-1.1-1.1-2.3-1.7-3.4l-.5-.9c-.3-.6-1.1-1.3-1.4-2,0-.2-.2-.4-.2-.5,0-.6.1-1,.5-1.2,1-.6,3.6.5,4.5.9h.3c2.8,1.3,5.5,2.8,8.5,3.4,3.9,1,7.8,1.9,11.7,3.2Z"/>
        <path class="st0" d="M284.2,118.7c3.7,1.7,6.5,5.6,7.9,9.3.6,1.7.9,3.3,1,5,.1,2.3-.2,4.6-.7,6.8-.4,1.9-1.3,3.4-1.9,5.2-.6,1.8-1.7,3.3-3,4.7-2.9,3-7.1,4.4-10.9,5.1-2.7.6-5.5.9-8.3,1-1.3,0-2.7,0-4,0-2.5,0-2.6-1.8-2.7-3.7v-.7c-.1-2.1-.1-4.3-.2-6.4l-.2-4.2c-.1-2.9-.3-5.7-.5-8.4,0-.5-.1-.8-.1-1.4-.1-2.8,0-5.7,0-8.5,0-.5-.1-1-.2-1.4v-1.2c-.2-.6-.4-1.3-.5-2.1,0-.3,0-.5.2-.8.3-.9.7-1.1,1.2-1.1.3,0,.7,0,1.1,0,1.8,0,3.7,0,5.5,0l4.2-.2c.8,0,1.6,0,2.3,0,1.6.2,3.5.6,5.4.8,1.6.2,3,1.2,4.5,1.9ZM267.9,131.6v.8c0,2,0,4.2,0,6.2v.5c0,1.5.2,2.9.3,4.3v1c0,.6,0,1.2,0,1.8,0,1.2.4,2.3,2,2.8.3,0,.7,0,1,0,1.4,0,3-.9,4.4-1.3,1.9-.4,3.7-1.1,5.5-2.3,1.6-1.1,2.9-2.4,3.8-4.3.3-.9.4-1.8.6-2.7.2-1.1.6-2,.8-3.1.2-.6.2-1.1.2-1.8-.1-3-2-6-4.2-7.8-1.4-1.3-3-2.2-4.8-2.8-.9-.3-1.7-.9-2.6-.9-.3,0-.6,0-.9,0-.8,0-1.7.2-2.5.2-.3,0-.6,0-.9,0-.3,0-.6,0-.8,0-2.2.1-2.7,1.2-2.7,2.9,0,.6.1,1.2.3,1.9,0,.7.2,1.5.4,2.3,0,.7.1,1.5.2,2.2Z"/>
        <path class="st0" d="M318.5,124.9c.3-.9.5-2.1.9-3.1.2-.5.5-1,.9-1.3.8-.5,2-.2,2.9.2l1,.4c1.9.9,3.3,1.5,2.5,3.9l-.2.5c-.7,1.8-1.9,3.3-2.6,5.1-.3.8-.7,1.6-1,2.4-.4,1-.7,2-.4,3.1.4,1.4,1.8,1.6,3,2.2,1,.6,2.2,1.1,3.3,1.5,1.3.5,2.6,1,3.9,1.4l.4.2c2,.7,3.2,1.1,4.4-1.1.4-.9.8-1.9,1.2-2.9l.4-1c.2-.6.5-1.3.8-1.8v-.2c.5-1,.6-2.3,1-3.3.2-.5.5-1,.9-1.3.9-.7,2.1-.4,3.2,0,.8.3,1.6.8,2.2,1.1,1.1.8,1.2,1.5.9,2.4-.3.7-.8,1.4-1.2,2.1-.3.6-.6,1.2-.8,1.9-.5,1.3-.9,2.6-1.5,3.9-.7,1.8-1.5,3.4-2.3,5.2l-.2.5c-1.1,2.7-2.3,5.4-3.4,8.1-.5,1.1-.8,2.3-1.2,3.4-.2.6-.4,1.2-.6,1.7-.3.8-.7,1.7-1.1,2.6-.2.5-.4,1-.5,1.5l-.4.9c-.6,1.5-1.3,2.3-3,1.6l-.7-.3c-.5-.2-1.1-.4-1.5-.5-1.3-.5-1.9-1.3-1.3-2.8.8-1.9,1.7-3.8,2.5-5.9.3-.7.7-1.5,1-2.2l.2-.5c.3-1.1.3-2.1.7-3.2,1-2.4.5-3-1.8-4.1,0,0-.2-.1-.3-.2-1.7-.9-3.4-1.8-5.1-2.5-.5-.2-1.1-.5-1.7-.8-1.5-.6-3.2-1.1-4.3-.3-1,.7-1.7,2.2-2.3,3.6-.3.7-.4,1.2-.6,1.7l-2.1,5.9c-.3.7-.5,1.5-.7,2.2-.2.5-.5,1.1-1,1.5-.7.5-1.2.4-1.8.2-.6-.2-1.2-.6-1.9-.9h-.2c-.5-.3-1.1-.4-1.6-.5-.1,0-.2,0-.2,0-1.1-.4-.7-2.3.1-4.4.9-2.3,2.4-4.8,2.7-5.5,1.2-3.1,2.7-6,3.9-9,.3-.8.6-1.6.9-2.4,0-.4.3-.8.4-1.3.4-1.1.9-2.2,1.4-3.4l.5-1.2.6-1.7c.3-1.1.7-2.2,1-3.2Z"/>
        <path class="st0" d="M371.5,145.4c.5.5.7,1.2,1.2,1.7.7.7,1.8,1.1,2.5,1.8.4.4.6.8.7,1.4.1,1.1-.4,2.1-.9,3-.8,1.6-1.2,3.2-1.8,4.9-.4,1.2-1.2,4.3-.7,5.4,0,.3.2.5.5.7.9.9,2.6.5,3.9.2h.1c1.9-.5,3.9-.9,5.7-1.7,1.6-.7,3.9-1.9,5.5-1.2.5.2,1.1.7,1.7,1.3.9.9,1.9,2.1,2.5,2.8.8.8.7,1.4.2,1.9-.5.6-1.6.9-2.5,1.1-1.7.5-3.5.4-5.2.8-2,.4-3.9.9-5.8,1.2-3.6.7-8.3,1.2-11,3.9l-.2.2c-1.4,1.5-2.3,3.3-3.8,4.9-.3.3-.5.6-.7.8-1.1,1.1-2.1,2-3.2,3.1l-.5.6c-.4.5-.8,1.2-1.3,1.7-.2.2-.5.4-.7.5-.9,0-1.5-.7-2.1-1.2-.7-.5-2.3-1.4-3.2-2.3-.6-.6-.9-1.2-.7-1.6.2-.7.8-1.4,1.5-2.1.9-.9,2-1.7,2.7-2.4l1.8-1.8c.9-.9,1.8-1.8,2.7-2.7.7-.6,1.6-1.3,2.3-2,.7-.7,1.3-1.5,1.7-2.4.6-1.7,1-3.5,1.5-5.3,1.2-3.8,2.3-8.1,2.7-12.1.1-1.1,0-3.9,1-4.9.2-.2.5-.4,1-.3.5,0,.7.1.9.4Z"/>
        <path class="st0" d="M406.6,203.5c-1.4,1.7-9.5,10.4-10,11.4s-2.4,3.5-3,3.8c-.5.2-5,6-5.7,7.2-.7,1.1-2.3,3.3-3.4,3.8-1.2.6-1.9-.2-2.4-1.2-.2-.5-.4-.9-.6-1.3-.2-.5-.6-1.1-.9-1.7-.5-1-.7-2.1.3-3.2.8-1,4.5-4.3,4.7-5.4.4-1.5-.7-4-1.6-5.7l-.4-.9c-.3-.6-.8-1.8-1.3-3-.7-1.6-1.7-3.2-2.4-3.8-1.3-.9-4.3-.9-5.5-.6-1.2.3-3.8.3-4.4-1-.6-1.3-1.5-3.1-2-3.8-.1,0-.1-.1-.2-.3-.3-.6-.1-1.7.7-2.1.2-.1.5-.2.8-.2,1.9,0,7.1.2,8.2.4,1,.2,20.6.5,21.7.2,2-.3,8.4-.7,9.5-.7,1.1,0,3.1-.2,3.7,1,.8,1.7-4.6,5.4-6,7ZM389.8,202.2c-.5,0-.8.2-1.1.3-1.6.7-.8,2.8-.5,3.4.3.6,1.4,2.3,2.9,3.7.7.6,1.1.7,1.5.5.4-.2.7-.8,1-1.1.7-.6,1.9-2.3,2.7-2.9.8-.7,2.5-1.8,1.9-3.1-.4-.8-1.3-.5-2.3-.5-1,0-3.1-.6-6.1-.4Z"/>
      </g>
      <g>
        <path class="st0" d="M185,447.1c.8-.5,1.6-1.3,2.6-1.9.5-.3,1-.5,1.5-.5,1,.1,1.7,1.1,2.2,2l.6,1c.9,1.9,1.7,3.2-.4,4.6l-.5.3c-1.6.9-3.5,1.4-5.2,2.4-.7.4-1.6.8-2.3,1.2-1,.6-1.8,1.2-2.2,2.2-.6,1.3.4,2.4,1,3.5.5,1.1,1,2.2,1.6,3.2.7,1.2,1.5,2.4,2.2,3.5l.2.4c1.1,1.8,1.8,2.9,4.1,1.8.9-.5,1.8-1,2.7-1.5l.9-.5c.6-.3,1.2-.7,1.8-1h.2c.9-.7,1.8-1.6,2.7-2.2.5-.3,1-.5,1.5-.4,1.1,0,1.9,1,2.5,2,.4.7.8,1.6,1.1,2.2.4,1.3,0,2-.8,2.4-.6.4-1.5.6-2.2.9-.7.3-1.2.6-1.8,1-1.2.7-2.3,1.4-3.6,2.1-1.6.9-3.3,1.7-5,2.7l-.5.3c-2.5,1.5-5.2,2.8-7.8,4.3-1.1.6-2,1.3-3,1.9-.6.3-1,.7-1.5.9-.8.5-1.6.9-2.5,1.3-.5.3-1,.6-1.4.9l-.8.5c-1.4.8-2.4,1-3.3-.6l-.4-.6c-.3-.5-.6-1-.9-1.4-.7-1.2-.7-2.2.7-3,1.8-1,3.7-2,5.6-3.1.7-.4,1.5-.7,2.1-1.1l.5-.3c.9-.7,1.5-1.5,2.5-2,2.3-1.3,2.2-2,1.2-4.4,0,0,0-.2-.1-.3-.8-1.8-1.6-3.5-2.5-5.2-.3-.4-.5-1-.9-1.7-.8-1.4-1.9-2.8-3.2-3-1.2,0-2.7.7-4,1.4-.6.4-1.1.7-1.5,1l-5.3,3.3c-.6.4-1.3.9-1.9,1.2-.5.3-1.1.6-1.7.6-.8,0-1.2-.4-1.5-1-.3-.6-.6-1.2-.9-1.9v-.2c-.4-.5-.8-.9-1.1-1.4,0-.1-.2-.1-.2-.1-.6-1,.9-2.2,2.8-3.3,2.1-1.2,4.9-2.3,5.5-2.7,2.9-1.7,5.8-3.1,8.6-4.7.8-.5,1.5-.8,2.2-1.3.3-.3.7-.5,1.1-.7,1-.6,2.1-1.1,3.2-1.8l1.1-.7,1.5-1c.9-.6,1.9-1.3,2.8-1.9Z"/>
        <path class="st0" d="M217.8,482.9c2.5,1.9,5.3,3.5,7.8,5.4,1.4,1.1,3,2.5,4.5,3.7,1.5,1.3,1.2,2.1.4,3.2l-1,1.2c-1.7,1.8-3.1.8-4.8-.5-1.6-1.3-3.1-2.6-4.8-4-.8-.6-1.5-1.3-2.3-1.9l-.4-.3c-.7-.5-.9-.5-1.9,0-1.3.8-2.1,1.5-2.8,2.5-.3.4-.6.8-.9,1.2-1.1,2-.3,3,1,4.1l.8.6c1.5,1.1,3,2.3,4.7,3.3.6.3,1.1.8,1.6,1.2,1,.8,1.9,1.7,2.4,2.8-.4.8-1,1.6-1.6,2.4l-.9,1.1c-.7.9-1,1-1.8.4l-.4-.3c-2.5-2.1-5.3-4.5-7.8-6.4l-1.6-1.3c-1.5-1.1-2.5,0-3.4,1.1l-.9,1.2c-.6.8-1.5,1.6-2.2,2.5-.5.7-1,1.4-1.3,2.2-.7,1.4,0,2.4.9,3.1.4.3.8.5,1.3.9l.8.6c.6.5,1,.9,1.5,1.5,0,.1.2.3.3.3.7.5,1.4.6,2.2.9.3.1.6.4,1.1.8,1.2,1,2.7,2.5,2.6,3.3,0,.4-.5,1.2-1.1,1.9-1,1.3-2.3,2.6-3,2.6-.5,0-1-.2-1.5-.6-1-.8-1.9-2.1-2.7-2.8l-.9-.7c-.8-.6-1.7-1.2-2.5-1.9-.5-.4-1-.9-1.4-1.3-.7-.6-1.4-1.2-2.2-1.8-.9-.7-1.7-1.4-2.6-1.9-.4-.3-1.1-.6-1.7-1.1-1-.8-1.7-1.7-1.4-2.8,0-.4.2-.7.4-.9.9-1.1,2.7-2,3.6-3,.3-.4.7-.7.9-1.1,1-1.3,1.9-2.7,2.9-4,.5-.8,1.1-1.5,1.7-2.2,1.8-2.3,3.7-4.5,5.5-6.8l.5-.6c1.2-1.6,2.5-3.1,3.8-4.7,1.3-1.7,2.2-3.6,3.4-5.2,1-1.3,1.7-1.3,2.5-.7.6.4,1.1,1.1,1.8,1.7.3.2.6.6,1,.9Z"/>
        <path class="st0" d="M252.9,502.4c3.7,1.7,6.9,4.6,7.5,8.9.2,1.5,0,3.5-.7,5.3-.8,2.3-2.1,4.4-3.6,5.6-1.9,1.5-4.4,1.7-6.8,2.3-.9.2-1.5.2-1.7.9,0,.2,0,.5,0,.9.1.8.7,1.8.9,2.7.8,3.1,2.4,5.9,3.5,8.9.5,1.2.9,2.5,1,3.7,0,.6,0,.9-.1,1.3-.3.9-1.2.6-2.6.2-1-.3-1.9-.4-2.7-.6-1.2-.4-2.1-1-2.6-2.6-.7-2-.8-4-1.4-6-.6-2.1-1.1-4-1.8-6-.3-.9-.5-3.9-1.7-4.3s-.6,0-1,.3c-.7.6-1.3,1.7-1.8,3-.3,1-.6,2.1-.8,3-.4,1.5-.2,3.8-.8,5.6-.2.6-.5,1.1-.9,1.4-.9.7-1.8.7-2.7.4-.5-.2-1-.4-1.5-.6-.8-.3-2.2-.7-2.7-1.4-.5-.6-.5-1.5-.1-2.5.4-1.3,1.3-2.7,1.7-3.4.9-1.9,1.7-4,2.4-6.1.3-.9.6-1.8.8-2.7.2-.7.4-1.4.6-2.1.4-1.1.9-2.2,1.3-3.4.4-1.2.8-2.3,1.2-3.5.9-2.8,1.7-5.5,2.2-8.3.1-.7.4-2.1.8-3.4.4-1.1.9-2.1,1.7-2.3.4,0,.9,0,1.6.2l.5.2c1.3.6,2.6,1.5,3.5,1.8,2.3.9,4.7,1.6,6.9,2.6ZM242.9,508.2c-.4,1.3-.5,3-.9,4.1v.2c-.3.5-.5,1-.7,1.6-.3.8-.4,1.6,0,2.3.3.9,1,1.3,1.8,1.6.7.2,1.5.4,2.2.5,2.1.6,3.6.9,5.2-.7,1.1-1.1,2.1-2.5,2.5-3.9l.2-.5c.9-3-1.2-4.4-3.6-5.7-.7-.3-1.7-.9-2.9-1.3-.9-.3-1.9-.5-2.6,0-.6.4-1,1-1.2,1.8Z"/>
        <path class="st0" d="M296.9,516.7c0,2.2-1.5,3.8-2.7,5.5-.4.6-.5,1.1-.5,1.4,0,1.2,1.6,1.8,2.9,2.5,3.7,2.3,3.4,6.3,3.9,10.1v.4c.2,4-3.9,7.9-7.7,8.9-2,.5-4.2.7-6.3.8-2.2,0-4.4,0-6.6,0h-1c-1.5,0-2.9,0-2.9-1.8v-.3c0-2.1.2-4.4.3-6.5,0-.8,0-1.6,0-2.4,0-2.5-.3-4.9-.4-7.3,0-1,0-2,0-3,0-.5,0-.9,0-1.4-.1-3.7-1-7.4-1.1-11.2v-1.4c-.1-1.6,0-3.4,1.5-3.8.2,0,.3,0,.6,0,.7,0,1.3.2,2,.3h.3c.5,0,1-.2,1.7-.3,1.4-.1,3-.3,4.5-.4.5,0,1,0,1.6,0,1.7,0,3.3.5,5,1.2,3.2,1.5,5.1,5.2,5.2,8.7ZM281.3,519.3c0,.6.1,1.4.3,2,.2,1.4,1.2,1.9,2.3,1.9,2.1,0,5.3-2.1,6.2-3.7.4-.6.5-1.3.5-1.8,0-2.6-3.5-4.7-6.1-4.6-1.4,0-2.6.8-2.9,2.4-.2,1.2-.3,2.5-.3,3.8ZM283.7,528.7c-.3,0-.5,0-.9.5-.8.8-1,1.9-.9,3.1,0,.7.1,1.4.1,2v.9c0,1.6.6,3.8,2.2,4.5.4.2,1,.3,1.6.3,1.3,0,2.8-.4,3.7-.7,2.8-.9,4.1-2.7,4-5.5,0-.5,0-.9-.1-1.4-.9-4.2-5.8-2.9-8.6-3.5-.5-.1-.8-.2-1-.2Z"/>
        <path class="st0" d="M329.7,502.8c1.7,1.5,10.2,9.6,11.2,10.2,1,.6,3.5,2.5,3.7,3.1.2.5,5.9,5.1,7.1,5.9,1.1.7,3.2,2.4,3.7,3.5.6,1.2-.2,1.9-1.2,2.3-.5.2-.9.3-1.3.5-.5.2-1.2.6-1.8.9-1,.5-2.1.7-3.2-.4-1-.9-4.2-4.6-5.3-4.8-1.5-.4-4,.6-5.8,1.4l-.9.4c-.7.3-1.8.7-3,1.3-1.6.7-3.3,1.6-3.9,2.3-.9,1.3-1,4.3-.7,5.5.3,1.2.2,3.8-1.1,4.4s-3.1,1.4-3.8,1.9c0,.1-.2.1-.3.2-.7.3-1.7.1-2.1-.8-.1-.2-.2-.5-.2-.9,0-1.9.3-7.1.5-8.2.2-1,.9-20.6.6-21.7-.2-2-.6-8.4-.5-9.5,0-1.1-.1-3.1,1.1-3.7,1.7-.8,5.3,4.7,6.9,6.2ZM328.1,519.6c0,.5.1.8.3,1.1.7,1.6,2.8.9,3.4.6.7-.3,2.3-1.3,3.8-2.8.6-.6.7-1.1.6-1.5-.2-.4-.8-.7-1-1-.6-.7-2.2-2-2.9-2.8-.7-.8-1.7-2.6-3-2-.8.3-.5,1.3-.6,2.3-.1,1-.7,3.1-.5,6.1Z"/>
        <path class="st0" d="M346.1,483.6c.5-.5,1-.8,1.7-1.5.4-.4.8-1.1,1.4-1.6.4-.4.8-.7,1.3-.8.5,0,.9.3,1.2.6.5.5.9,1.3,1.3,1.8,1.3,1.5,2.7,2.9,4,4.2l.8.8c1.1,1.1,2.2,2.3,3.2,3.5,2.1,2.4,4.3,4.9,6.6,7.2.7.7,1.4,1.4,2.1,2l1.2,1.2c1,1,2.1,1.9,3.3,1.5.5-.2.9-.5,1.2-.9.9-.9,1.5-2.2,2.6-3.2.5-.5,3.9-3.7,4.5-3.4.8.3,1.8,1,2.6,1.8.5.5.8,1,1,1.6.4,1.4-1.3,2.5-1.9,3.4l-.6.6c-.8.8-1.8,1.5-2.6,2.1-.9.7-1.8,1.5-2.5,2.2-1.1,1.1-2,2.2-2.9,3.4-.3.5-.7,1-1,1.3-.8.8-1.8,1.2-2.9.3l-.3-.3c-.6-.6-1.1-1.5-1.6-2.2-.6-.6-1.1-1.2-1.7-1.8-.4-.4-.8-.8-1.3-1.2-.7-.6-1.4-1.3-2.1-2l-.6-.6c-.5-.5-.9-.9-1.4-1.3l-3.9-3.6c-1.5-1.4-3.1-2.9-4.6-4.4-1.7-1.7-3.3-3.6-5.1-5.4-.7-.7-2.1-1.4-3-2.4-.2-.2-.5-.6-.6-.8l-.2-.6c-.1-.6.2-1.1.7-1.6Z"/>
        <path class="st0" d="M372.2,448.1c1.5-1.4,2.4-2.1,4.5-2.9,1.2-.5,2.5-.9,3.6-.4.3.2.7.4,1,.9.7,1.1,1.4,3.3.9,4.6v.2c-.6,1-1.6.6-2.6.9-1.3.3-2.5.9-3.3,1.8-.2.3-.5.8-.7,1.2-.6,1.2-.9,2.6-.8,3.7,0,1.5.9,2.9,2.2,3.5.6.3,1.3.4,2,.3,1.6-.2,3.2-1.6,4.5-2.7l1-.7c3.5-2.9,6.8-5.7,11.6-5.9,2.4,0,4.7.4,6.7,1.4.9.4,1.7.9,2.5,1.6,3.4,2.6,4.4,7.4,3.3,11.4-.2,1-.7,2.1-1.3,3.3-1.4,2.7-3.5,5.5-5.5,7.1-1.4,1-8,3.1-10.4,1.9-.9-.4-1.2-1.3-.7-2.6.1-.3.3-.7.5-1.2.5-1,1.3-2.3,1.9-2.5,1-.6,2.9,0,4-.3,1.9-.5,3.4-1.9,4.3-3.7.8-1.6,1.2-3.3,1.1-4.9,0-1.7-1-3-2.2-3.6-1.8-.9-4.3-.9-6.2,0-6.4,2.9-11.6,11.5-19.7,7.7h-.2c-3.8-2-6.5-6.4-6.1-10.7.2-2.1,1.3-4.2,2.1-6.1l.4-.7c.5-.9,1-1.6,1.8-2.4Z"/>
      </g>
      <g>
        <path class="st0" d="M235.3,351.9c-.3.8-1.2,1.8-1.8,2.6-3.4,4.4-7.5,5-11.1,9.2-.5.6-1,1-1,1-1.1,1.5-2.8,4.7-3.5,6.1-1,2.2-1.6,4.9-2.1,7s-.8,3.1-.5,5.2c.4,2.7,20.8,25.8,19.5,23-.8-1.7-7.9-18-8-20.5,0-.8,1.1-1.1,1.4-.4.8,1.5,1.6,6.3,2.1,7.1.9,1.5,1.4,3.6,2.3,5.1s.8,3.5,3,5.2,1.9.7,2.5-.2c1.9-2.6,5.9-9.3,6.6-11,3.3-7.7-1.4-14.5-2.8-21.2-.9-4.2-.6-6.4,1.8-10.1,3.7-5.6,5.5,4.8,8.9-.4.9-1.4,1.7-2.5,2.6-3.3.2-.2,1.1.8,1.6.5s1.4-7,1.3-8.2,0-.3-.1-.4c-.5-.8,2-2.8,2.1-3.6.9-7.8-2.6-12.9-10.1-15.3-5.7-1.8-10.9.3-14.1,5.3-.9,1.4-1,3.1-2.4,4.2-.9.7-2.2.3-3.6.9-4.7,2-3.7,9.5,1.2,10.3,1.3.2,3.6-2.5,4.2-.7,0,.1-.1,2.4-.2,2.5Z"/>
        <path class="st0" d="M222.3,428.2c1.3-1,1.9-2.5,4-3.3,4.3-1.5,9.3,4.2,10.8,7.8.8,2,.6,6.3,2.9,6.8,2.8.6,4.9-.2,7.5,0,1.4,0,3.3.7,4.7.7,1.4,0,2.8,0,4.3,0,1.2,0,2.1-.4,3.2-.5.4,0,6.5.6,6.9.5.8-.3,1.6-.5,2.4-.7,1.7-.5,4.1-3.3,5.1-4.4.8-.8,1.8-6.4,2-7.6s-.2-1.8-.5-2.8c-.3-1.1-.7-1.5-1.8-1.9-.5-.2-.9-.3-1.4-.4-6.7-1.4-13.6-2.9-20.4-3.9-1.6-.3-3.3-.5-4.9-.7s-2.3,0-3.5,0c-2.2,0-17.8-6.5-19.1-7.8s-8.1-11.7-8.8-12.6-1.2,3.8-3.4,8.5c-4.6,9.7-6.8,18.7-1.4,24.7,1.1,1.2,1.5,1.3,3.3,1.1,1.7-.3,6.9-2.2,8.3-3.2Z"/>
        <path class="st0" d="M224.5,428.2c-3.6,2-9.9,6.4-13.9,6.7s-3-.6-3.8-.3c-1.4.4-3,3-2,4.4,1.7,2.5,7.9,1.6,10.5,1.6,4.8.1,8.8,0,13.7-.2,1.7,0,2.7.6,4.7-.3,6-2.7-1.9-14.7-6.9-13.5-1.1.2-1.7,1.2-2.3,1.5Z"/>
        <path class="st0" d="M333,355.3c0-.4,0-.6.2-.8.4-.3.7-.6,1-1.1s.8-4.1.9-4.6c.3-1.2.4-2.3.5-3.5,0-1.5.3-2.8.1-4.3s-.7-3.3-1.4-4.8c-2.3-5.5-7.6-8-13.4-6.9-.9.2-1.8.4-2.7.7s-1.6.6-2.4.7c-1.1,0-2.7,0-3.6.6-.9.6-1.7,1.3-2.3,2.2s-.9,2-.8,3,.8,2,.7,3.2c-.2,1.5-1.1,2.9-.3,4.4s2,2.4,1.4,3.1c0,.1-.1.2-.2.3-.2.9-.1,1.9-.1,2.9s0,1.4,0,2.1.1,1.3.1,2c0,.4.1.9.5,1.1s.5.2.8.1,1.1-.5,1.2-.4c.3,1.2,1.2,3,1.8,4.1s1.5,1,2.5.7c.7-.2,1.7-.6,2.3-1,.7-.4,1.4-.8,2.2-.4s1.3,1.2,1.6,1.9c2,3.9-1.5,5.3-4.2,8.5-5.6,6.7,3.4,27.1,4.3,28.7s3.5-1.6,4-2.2c1.4-1.5,4.6-4.3,6.3-8.1.7-1.5,2.2-4.4,3.3-6.5s1.1-1.1,1-.8c-.6,3-2.8,7.4-4,9.5-1.9,3.5-4.2,6.9-7.2,8.6-10,5.6-16.7,13-19.3,11.7-1.2-.6-2.1-.8-3.5-.7s-1.4.1-2,.4-1.7.7-2.7,1.4-.5.6-1,.9-3.6,1.3-4.6,1.9c-1.9,1.1-1.1,1.4-2.1,1.9-1.4.8-3.2,1-3.8,1.4-1.1.5-.6,1.2.6,1.4,2.9.4,4.8.2,8.1-.3,2.8-.4,5.5-1.3,7.3-1.5,18.5-2.6,32.2-15.6,32.7-15.9,4.8-3.1,9.2-8.8,10.3-11.1.8-1.6,2.8-5.4,3.1-8.8s.5-4.2.2-6.6c-.2-2-.9-4.8-1.5-6.5-1.3-3.9-2.4-5-3-5.4-4.5-3.5-10-1-11-3.6-.3-.8-1.5-3.2-1.6-4,0-.5-.4,1.1-.4.6Z"/>
        <path class="st0" d="M276.8,415.9c-.7-.2-.6-.3-2.1-.8-1-.3-.4-.7-2.4-1.4-1.1-.4-4.2-.7-4.9-.9-.5-.2-.6-.4-1.1-.6-1.1-.5-2.1-.7-2.9-.9-.7-.1-1.4,0-2.1,0-1.4.2-2.2.6-3.3,1.4-2.3,1.8-6-3.1-20.1-7.5-2.2-.7-4.1-1.9-5.7-4.6-1.2-2.1-8.2-16.9-10-18.9-.2-.2.1-.4.7.1-1.1-1.8-2.2-3.7-3-5.8-.3-.7-.4-1.4-.5-2-.5,0-1,0-1.4,0-.4,0-.8,0-1.1,0-.1,0-1.7,3.6-2.1,10.5-.3,4.3.9,7.7,2.7,12,.9,2.2,6.8,10.7,9.3,12.4.5.3,21.6,9,36.2,9.7,1.8,0,4.7.2,7.5,0,3.4-.2,3.3-.1,6.1-1.1,1.2-.4,1.5-1.2.3-1.5Z"/>
        <path class="st0" d="M339.7,428c-1.3-1-1.9-2.5-4-3.3-4.3-1.5-9.3,4.2-10.8,7.8-.8,2-.6,6.3-2.9,6.8-2.8.6-4.9-.2-7.5,0-1.4,0-3.3.7-4.7.7-1.7,0-3.2-.3-5,0-1.2.3-2.3-.2-3.5-.4s-1.9-.1-2.9-.2c-2.1,0-4.1-.4-5.8-1.9-2-1.8-2.3-4-2.3-6.5s2.2-5.9,4.9-7.5c2.3-1.3,4.8-1.8,7.3-2.7,1.2-.4,2.4-.9,3.7-1.1,3-.5,6-.8,8.8-1.9,4-1.5,7.9-3.8,11.1-6.5.6-.5,1.2-1.1,1.6-1.8s.3-1.1.8-1.6c1.1-.9,2.7-1.3,3.9-2,2.2-1.3,4.3-2.9,6.4-4.5s3.4-2.6,4.8-3.9,3-3.1,3.7-4c.4-.6,2.4-4.2,2.4-4.2,0,0,.9,6.2,1.3,8.1s.6,3.9.9,5.8c1.1,7.1,4.6,20.7-.8,26.7-1.1,1.2-1.5,1.3-3.3,1.1-1.7-.3-6.9-2.2-8.3-3.2Z"/>
        <path class="st0" d="M337.5,428c3.6,2,9.9,6.4,13.9,6.7s3-.6,3.8-.3c1.4.4,3,3,2,4.4-1.7,2.5-7.9,1.6-10.5,1.6-4.8.1-8.8,0-13.7-.2-1.7,0-2.7.6-4.7-.3-6-2.7,1.9-14.7,6.9-13.5,1.1.2,1.7,1.2,2.3,1.5Z"/>
        <g>
          <path class="st0" d="M377.8,296.9c-.7-2.5-2,1.7-2.2,2.3-.8,2-4,1.8-5.8,2.6-2.7,1.1-4.6,3.8-7.5,4.5-3,.7-7,2.3-10,1.2-.3-2.3,5.5-4.7,4.5-6.1-1.1.8-2.3,1.5-3.4,2.3-.8.6-1.6,1.9-2.6,2.1,0-.9,0-1.8,0-2.7-.7,1-1,2.3-1.9,3.2-1.3,1.3-2.8,1.4-4.4,1.8-2,.5-4,1.5-6,2-1.7.4-3.2.5-5,.7-2.2.2-4.5,1-6.8.8-.3-1.4,1.9-2.1,2.9-2.7.5-.3,2.3-1,1.7-1.7-.6-.7-1.1.5-1.6.7-1.2.6-2.8.3-4.1.7-1.1.4-2,1.3-3.1,1.6-.7.1-1.3-.1-2-.1-2.6-.1-5.9-1.8-8.2.2-1.3,1.2-1.8,1.6-3.7,1.5-1.6,0-3.3,0-4.9,0-4.5,0-9.8,2.3-13.2,5.1-.6-3,1.1-5.9,1.2-8.9,0-2.3-1.1-4.4-.9-6.8.1-1,.6-2.1,1.2-2.8.8-.8,1.7-1,2.5-2.1.7-1.1,1.4-2.7,2.6-3.3,1.1-.5,1.5-.2,2.4-1.3,1-1.3,1.5-.9,2.9-1.2,1.2-.3,2.7-2,3.4-3.1,1.6-.5,2.5-1.6,3.8-2.7,1.2-1,3.3-1.4,4.9-1.2,1.8.2,3.2,1.5,5,1.9,2,.5,4,.4,5.7-.8,1.4-1.1,2.8-1.4,2.5-3.4-1.1-.2-2.2.9-3.2,1.3-1.3.5-1.8.6-2.8-.2-.9-.7-1.9-1.1-2.9-1.6-1.2-.6-2-.8-3.5-.5-1,.2-1.9.8-3,.9-1,.1-1.5-.2-2.5-.2.1-.4.3-.9.4-1.3.2-1.1.1-2.2.8-3.2.7-1.1,2.2-1.7,3.3-2.3,2.6-1.4,2.6-4.1,4-6.4,1.8-2.8,2.8.1,5.1-.3,3-.5,4.6-3.1,7-4.7.8-.5,2-.6,3-.5.4,0,1.1,0,1.4.4.3.3.1,1,.3,1.3.7.7,1.5-.4,1.5-1.3,0-.9-.8-2-1.5-2.4-2-1.4-3.7-1.2-5.7.3-.9.7-1.8,1.6-2.8,2.2-.9.6-2.8,1.7-4,1.6-2.2-.2.5-4.5,1.4-5.3,1-1,2.2-1.5,3.3-2.3.6-.4,2.2-1.6,2.2-2.4,0-.3-.7-.9-.9-1.2-1.7.8-3.3,1.1-4.9,2.1-2.9,1.9-4.6,4-6.1,7.1-1.3,2.9-2.7,8.5-6.6,8.4.1-1.5-1.1-2.5-1.8-3.7-1.1-1.6-.7-3.1-.1-4.9.4-1.5.7-2.7.6-4.2,0-1.1.2-3.5-1-3.8-.4,1.5-.1,3.2-.4,4.7-.4,1.8-2.1,2.4-2.6,4-.4,1.5.2,2.4.8,3.6.7,1.4,1.4,3.1,1.2,4.7-.2,1.4-1.7,2.2-2.2,3.4-.6,1.5-.6,3.2-1.4,4.7-1.2,2.1-3.5,4.2-5.2,5.8-.9.8-1.5,1.4-2.7,1.7-1,.2-1.7.3-2.6.7-.9.5-1.7,1-2.3,1.8-.6.9-1,1.8-2.1,2-2.1.4-4.2-1.4-3.9-3.7-.7-1.1-1-2.5-1-3.9.1-1.7,1.3-2.7,1.9-4.2.8-1.9,1.1-4.1.9-6.1-.4-4-1.7-6.8-3.4-10.7-.5-1.1-.1-2.8-.3-4-.4-2.8.3-7.5,3.8-7.8,3-.3,5.7,1.9,7.3,4.2,0-1.7-1-3.9-2.4-4.9-1.5-1.1-3.8-.8-5.5-.9,0-1.4.7-1.3,1.7-2,1.1-.8,2.2-2.1,1-3.1-.7-.6-1.8-.5-2.7-.5-1.6,0-.9.9-1.8,1.8-.5.5-1.5.8-2.1,1.2-.9.6-1.3,1.3-2.2.6-.7-.5-.9-1.2-1.8-1.7-.8-.5-1.4-1.1-1.9-1.9-1.1-1.8-1.1-3.6-3.4-4.5,0,.8,0,1.6,0,2.4,0,1.5.3,3.1,1.3,4.3,1.1,1.2,2.3,2.3,3.3,3.6,1.4,1.8,1.1,4,.5,6-.7,2.6-1.8,5.1,0,7.5,1.4,2,1.9,4.2,2.4,6.6.6,2.7.1,6.3-.3,9-.2,1.1-.4,6.7-2.7,4.8-.8-.7-1.3-2-2.1-2.8-1-1-2.1-1.9-3.3-2.7-1.3-.9-3.3-1-4.5-2-.9-.7-.6-2.2-.6-3.3,0-.3-.4-4.4-.2-4.4-.4,0-.8.8-.9,1.1-.3.6-.3,1.3-.4,2,0,.4,0,.5-.5.6-.4.2-.5.2-.5.7,0,.4,0,.8-.1,1.2-.2.3-.3.3-.5.4-.7.5-.7,1.7-.7,2.5,0,.4.1.9.3,1.3.2.5.6.5,1,.8,1.2.8,2.5,1.7,3.5,2.8,1.5,1.4,3,2.7,4.5,4,1.4,1.3,2.1,2,1.4,3.9-.8,0-1.5-.5-2.3-.5-1.2,0-2.4,0-3.5,0-2.4-.1-3.2-.9-4.4-2.9-1-1.7-1.1-3.8-2.6-5.1-1.4-1.3-3.3-1.4-4.8-2.4-1.2-.8-2.8-2-3.5-3.3-.9-1.8-.9-2.6-2.8-3.6-.7-.4-2-.8-2.3-1.6-.3-.6-.1-1.9-.3-2.6-.2-.9-.5-1.8-1.3-2.3-.7-.4-1.3-.4-1.7-1.2-.7-1.3-.4-3.4-.7-4.9-.4-2.2.1-4.6,0-6.9-1,0-1.2.4-1.4-.8-.2-1.2.1-2.5.1-3.6,0-2,0-3.9-.4-5.8-1,0-1.3.2-1.7,1.1-.3.8-.6,2-.7,2.8-.8-.5-1.5-1.2-2.4-1.5-.1,1.6.8,1.9,1.9,2.9,1.2,1.1.7,2.4.6,3.9-.9.4-1.9-.3-2.9-.3.9,1.1,2.2,1.8,3,3,.5.7.9,1.9,1.1,2.8.3,1.7-.7,3.5-.1,5.1.5,1.3,1.6,1.7,2.4,2.6.8.9,1.1,2.6,1.1,3.8,0-.1-.1-.3-.2-.4.3,1.9,2.4,4.2,3.5,5.7.8,1,1.6,1.8,2.3,2.8.8,1.1,2.4,2.8,2.4,4.2-1.4.3-2.6,1.2-4.1,1.4-.2.5,0,1.2,0,1.8,1.9-1.5,5.6-2.3,7.4-.5,1.9,1.8,4.6,2.3,6.5,4.1,1.8,1.6,2.1,4.4,4.1,5.8,1.3.9,2.4.2,3.9.3,1.1,0,2,.5,3,.8,4.9,1.6,3.5,9.1,3.5,13.1,0,2.8-.8,5.3-1.6,8-1-1.1-2.3-2.1-3.6-2.7-1.4-.6-2.4-1.6-3.7-2.3-1.9-1-3.3-.3-5.2-1.3-2.3-1.2-5.2-.5-7.6-1.7-2.4-1.1-4-2.4-5.9-4.3-1.4-1.5-2.8-2.8-4.9-3.2-3-.5-4.5-.8-7-2.9-1-.8-2.1-1.5-3-2.4-.8-.8-1.6-2-2.7-2.7-2.3-1.4-5.3-1.2-7.6-2.3-2-1-1.9-3.8-2.7-5.7-.9-2.2-2.6-4.1-3.8-6.1-1.2-2-1.6-4.4-2.7-6.5-.7-1.3-1.2-2.8-2-4-.8-1.1-1.2-.9-2.6-1,1.2,1.9,1.7,3.9,1.6,6.1-2.9,0-5.4-1.6-8.2-1.5-.7,0-3.3-.1-3.7.4-.7.9.9,1.4,1.6,1.6,2.7,1.1,5.8,1.3,8.5,2.3,2.5.9,4.1,3,5.4,5.2,1.4,2.2,3.4,5.7,2.6,8.3-1.6.3-2.9-1.1-3.9-2.1-2.3-2.1-3.7-2.7-6.8-2.7-1.4,0-2.8,0-4.3-.1-1.6,0-3.3-1-4.9-.8,0,3.1,4.1,1.9,6.2,2,2.3,0,4.6,1.1,6.4,2.5,1.9,1.4,3.3,3.9,5.3,5,1.8.9,3.9,1.1,5.8,1.3.9,0,1.7,0,2.6.1,1.1.2,1.6.4,2.6.3,1.8.2,2.9,1.6,4.1,2.8,1.6,1.5,3.1,3.1,4.9,4.6,1.2,1,2.4,1.6,3.8,2.3.8.4,3.1,1.5,3.3,2.4.6,2.1-6,2.2-7.3,2.4-3.1.6-6.2.3-9.1,1.9-1.5.8-2.9,2.1-4.6,1.3-1.1-.5-2.2-3-3.3-2.6.1,1,2,1.5.7,2.3-.6.3-2.1.1-2.8.2-1.5.2-2.9,0-4.4-.1-1.6,0-3.2.3-4.7.2-.4,1.9,5,1.1,6.2,1.2,3.1.2,5.7,2.1,8.7,2.1-1.8.9-3.2,1.5-4.5,3.1-1.1,1.3-2,2.6-3.4,3.7-2.4,2-4.8,4.2-8,4.4-1.3,0-2.8,0-4-.5-1.3-.5-2.3-1.2-3.7-1.5-2.6-.5-5.7-.4-8.4-.2-1.6.1-2.9.2-4.5,0-1.3-.2-3.2-.3-4.3.5,3.1,2,6.3.2,9.6,1.1-.6,2.5-4.7,1.8-6.6,2.3,1.7,1.1,3.9.8,5.6-.2.9-.5,1.7-1.2,2.7-1.5,1.4-.5,3.3-.3,4.7,0,1.6.3,3.3.4,4.9.8,3,.8,4.3,1.6,7.5.3,1.8-.7,3.8-1.1,5.6-2,2.1-1,3.5-3.6,5-5.5,2.4-2.8,6.1-5.2,9.6-6.1,2.3-.6,5.1,0,7.4-.3,2.1-.2,4.2-1,6.3-1,2.4,0,3.9,1.1,5.9,2.2,3.1,1.7,6.7,3.1,10.2,3.3,3.3.2,6.2,1.2,8.8,3.5,1.6,1.5,4.5,2.6,5.7,4.3,1.6,2.4,1.9,7.3,1.9,10.1,0,3.2,0,6.4-.3,9.6-.2,1.7-.4,3.3-.5,5-.2,2.4-.3,4.6-1.1,6.9-.6,2-.4,14.7-1.1,16.7-.3.7-.7,2.2-1.8,3.7,3.3.8,5.9-1,10.2.5s6.2-1.1,9.5,0c-1.6-2.3-2-3.4-2-4.4-.4-5.1-.1-12.3.1-17.4-.3-2.7-.2-5.5-.2-8.3s.7-3.3.7-5.2c0-1.6-.3-3.2-.5-4.9-.3-2.1-1.3-4.2-.8-6.4.5-2.5,2.4-5.1,4.1-7,1.9-2.1,4.8-5.2,7.7-5.6,2.2-.3,4,.8,6.3.2-.8-.4-1.7-.7-2.6-1,0-.2,0-.8.1-1,1.7-.6,3.4-.7,5.1-1.6,3.6-1.8,6.7-2.3,10.6-1.3,2.1.5,4.2,1.1,6.1,2.1,1.6.8,3,1.9,4.9,1.6-.5-1.3-2.7-2.2-3.7-3,2,.8,4.7.4,6.7.2,2.6-.3,4.4.8,6.6,2.1,2.7,1.5,4.3,3.2,5.7,5.9.9,1.8,1.5,4.1,3.7,4.9,2.1.7,4-1,6.1-.7.9.1,1.7.9,2.6,1,1,.2,1.9-.3,2.7-.7-.5-.5-1.4-.9-2.1-1.4-.6-.5-1.3-1.2-2.1-1.4-1.6-.4-3.3.7-5,.2-1.6-.4-2.4-1.6-3.1-3-1.1-2.1-2-4.6-4-6-1.3-1-3.5-1.1-4.3-2.6,1.5-.6,3-.8,4.4-1.6.9-.5,2-1.5,3-1.7,1.8-.4,4.3.7,6.4.7,2.5,0,3.6-.6,5.7-1.7,1.6-.8,3.2-1.3,4.7-2.5,1.5-1.2,2.5-2.8,4.3-3.6,1.6-.7,3.2-.1,4.6-1.1,1.2-.9,3.3-3,2.9-4.8Z"/>
          <path class="st0" d="M213.8,323.7c0,2.8-3,5.1-4.8,6.8-2.4,2.3-5,4-8.2,5.2-4.5,1.8-8.6,2.2-13.4,1.5s-4.9-.9-6.5-2.9c-1.4-1.7-2.3-4.4-2.2-6.6.3-4,3.3-6,6.6-7.7,6.1-3.1,14.6-2.6,21-.6s6,1.8,7.4,3.9"/>
          <path class="st0" d="M193.2,310.2c-.7,1.1-2.4,2.4-4.5,3.6-2.5,1.4-5.1,1.9-7.9,2.1-4.2.2-10.3-.3-12.5-4.4-1-1.8-1.7-3.8-.6-5.7s3.3-2.6,5.3-3.1c4.2-.9,9.1-.1,12.9,1.8s5.8,3,7.3,5.6"/>
          <path class="st0" d="M220.1,309.4c-.8.4-1.7.6-2.5.8s-1.6.3-2.5.3c-2.2,0-4.7-1.1-6.4-2.5-2.7-2.3-4.4-5.5-4.7-9.1-.4-4,2.7-6.3,6.5-6,4.4.4,8.3,6.6,9.3,10.5.4,1.5,1.4,5.4.3,6Z"/>
          <path class="st0" d="M199,302.8c-.8,1-2.4.8-3.5.8-1.7,0-3.4-.5-5.1-1-4.4-1.2-7.8-2.3-12-4.1-1.5-.7-3-1.4-4.4-2.2s-2.5-1.4-3.3-2.5c-1.5-1.9-2.1-4.4-2.1-6.8.2-6,8.6-6.3,12.7-4.8s8.8,6.3,12.2,10.5c1.4,1.8,2.8,3.7,4,5.6s1.5,2.6,1.5,4.3"/>
          <path class="st0" d="M199.2,283.8c-1,.9-4.1.6-5.2.6-1.7,0-3.3-.4-4.9-.9-3.4-1-6.9-2-10-3.7-4.8-2.6-6.5-6.6-6.4-11.9,0-6.9,9.4-6.2,13.8-4.3,3.1,1.4,6,3.2,8.3,5.8s3.9,3.8,5.1,6.1c.9,1.6,2,3.6,1.5,5.4-.3,1.2-.4,1.1-2.3,2.9Z"/>
          <path class="st0" d="M208.3,268.2c-6.4,0-12.6-3.1-17.3-7.4s-3.6-8.7-.9-12.7,10.2-4.4,14.1-.7c3.6,3.6,5.3,8.7,6,13.4.4,2.6.9,5.7-1.9,7.3"/>
          <path class="st0" d="M234.7,260.1c-6.2.2-11.9-1.7-17-5.1s-4.9-3-6.8-5c-4.1-4.4-6-13.1-2.3-18.3,3.2-4.5,9.8-4.4,13.9-1.4,5.9,4.3,8.2,10.7,10.8,17.1.9,2.1,1.3,6.4,1.4,8.7,0,1.2.5,3.5-.1,3.9Z"/>
          <path class="st0" d="M242.2,274.4c-1.4,2.8-7.5,3-10.2,3.1-2.9,0-6.1-.3-8.6-1.9-2.8-1.7-5-5.5-3.6-8.8.9-2,3-4,5.1-4.7s5.2,0,7.7.8c3.5,1.1,6.5,3.7,8.8,6.5s2.7,4.1.8,5Z"/>
          <path class="st0" d="M262.7,306.8c-4.2,0-11.4-4.9-12.8-9.1-1.3-3.8-.2-7.6,3.2-9.7,7.2-4.3,12.6,6.7,12.3,12.5-.1,3-.7,6.1-2.8,6.2Z"/>
          <path class="st0" d="M247.9,281.1c-.2-1.1-2.7-1.5-3.7-1.7-1.6-.3-3.5-.4-5.2-.2-3.7.4-7.3,2.3-8,6.3-.7,4.3,4.8,6,8.2,6.3s6.5-1.3,8.2-4.3c.9-1.6,1.9-4.5.5-6.5Z"/>
          <path class="st0" d="M244.1,245.8c-.4-2.7-.3-5.9,0-8.8s1.5-6.2,3.1-8.9c2.6-4.5,5.8-7.4,10.8-8.8,4.8-1.4,10.6-.6,11.6,5,1.8,9.8-3.8,16.9-10.3,23.3-2.8,2.8-6.6,5.7-10.4,4.9s-4-1.4-4.8-6.6Z"/>
          <path class="st0" d="M238.9,239.2c-3.1.3-6.8-3.7-8.5-6.1-1.3-1.9-2.4-4.9-2-7.2.5-2.9,4.2-5.8,7.1-4.6,4.5,1.9,5.5,7.8,5.6,12,0,2,.8,5.5-2.3,6Z"/>
          <path class="st0" d="M252.5,272c-3.4-.5-3.1-8-2.7-10.4.5-3.1,2.5-8.6,6.1-9.3,2.8-.5,4.9,1.9,5.5,4.4,1,4.1-1.1,9.2-3.3,12.6-1.9,3-3.6,3.8-5.6,2.8Z"/>
          <path class="st0" d="M277.4,270.6c-2.4,0-4.5-.2-6.8-1.3-2-1-3.6-2.7-5.1-4.4-1.2-1.3-2.1-3.4-2.5-5.2-.4-2.1-.5-3.6.3-5.6,1.5-4,5.5-5.4,8.5-1.9s5,7.7,5.9,11.8c.5,2.3,1,4.5-.3,6.7"/>
          <path class="st0" d="M277.2,240.4c-2.4-.7-3.6-4.1-4.1-6.4-.6-2.5-.5-5-.6-7.3-.2-3.8,1.7-9.4,6.6-8s2.8,2.8,3.4,4.3c.8,2,.9,4,1,6.1.1,3.2-.2,6.2-2.2,8.7s-2.2,2.7-4.4,2.7"/>
          <path class="st0" d="M289.8,241.6c-1.3-4.4-.6-9.5.2-14,.5-3.1,1.2-7,3-9.6,2.3-3.5,6.7-4.2,10.6-3.3s5.4,6.8,4.6,11.2c-.7,3.5-2.2,7.1-4.1,10-1.6,2.4-3.2,5.1-5.8,6.5s-7.4,2.4-8.3-.7Z"/>
          <path class="st0" d="M287.4,270.4c0-6.9.5-15.8,5.7-21.2,2.2-2.3,6.6-4.9,10-3.7,4.7,1.7,2.8,10.1,1.5,13.2-2.2,5-4.4,10-9.9,11.8-2.1.6-5.9,1.5-7.2,0Z"/>
          <path class="st0" d="M310.3,252.5c3.7,0,6.7-2.9,9.2-5.3,3.7-3.5,6.8-8.7,8.9-13.3s4.1-13.8-2.7-15.3c-6.2-1.3-12,2.6-14.9,7.9s-3.9,12.3-3.6,18.6c.1,2.6,1,5.8,3,7.4Z"/>
          <path class="st0" d="M329.4,252.7c1.2,1.4,4,1.7,5.7,1.3s3.5-1.8,5-2.9c4-3,6.4-6.9,6.9-11.8.4-4.5-3.8-7.1-7.9-6.6-5.5.7-9,5.1-11.3,9.7s-1.8,8,1.6,10.3Z"/>
          <path class="st0" d="M334.3,263.4c2.9,3.1,5.4,3.3,9.7,3.7,3.4.3,6.7.4,10.1-.6,6.2-1.9,12.3-7.3,13.3-14,.7-5.2-3-7.6-7.8-7.6-6.5,0-14.7,4.4-19.5,8.8-2.9,2.6-7.7,7.5-5.7,9.7Z"/>
          <path class="st0" d="M326.2,282.5c.9,1.8,1.8,1.9,3.6,2.7,2.1.9,4.2,1,6.5,1,6.5,0,15.9-2,19.4-8.2.9-1.6,1.8-3.9.5-5.4s-4.4-2.1-6.2-2.4c-6-1-13.3.6-18.4,3.8-3.5,2.2-5.6,4.4-5.6,8.6"/>
          <path class="st0" d="M354.7,303.2c0-6.6.5-13,3.6-19,1.8-3.5,4-7.1,6.9-9.7s10.2-7.3,14.6-4.4c1.6,1,3.1,2.7,3.5,4.5,1,4.3-1,7.8-3,11.4s-5.6,7.6-9.1,10.1-4.8,3-7.3,4.1c-1.8.8-3.4,1.2-5.1,2-1.5.7-3,1.2-4.3.9"/>
          <path class="st0" d="M376.6,298.4c2,0,4,.8,5.9.9s4.6,0,6.8-.7c4.5-1.2,9.2-3.4,9.7-8.5s-5.7-6.1-9.2-5.4c-2.1.4-4.5,2.1-6.2,3.4s-2.7,2.7-3.9,4.1c-1.8,2.1-3.6,4.5-3.2,6.3Z"/>
          <path class="st0" d="M369.4,307c1.1,3.2,6.8,5.6,9.7,7,3,1.5,6.2,2.8,9.6,3.5,5.2,1,14.6.6,16.1-5.7,1-4.3-3.1-7.8-6.9-8.8-6-1.5-10.5-2-17.1-1.4-3.2.3-10.8,1.5-11.2,5.4"/>
          <path class="st0" d="M359.4,313c-1.6,2.1,0,5,.8,7.5s1.6,3.2,2.6,4.7c1.6,2.2,3.8,4.1,6.6,4.5,1.9.3,3.8-.2,5.4-1.5,1.4-1.2,1.3-3.3.9-4.9-.9-3.9-4.4-8.3-8-10.1-1.3-.7-2.9-.9-4.3-1s-2.7-.9-4,.8Z"/>
          <path class="st0" d="M329.9,308.5c4.1,0,8,0,11.5-2.5,1.7-1.1,2.7-3,3.6-4.8,1.6-3,2.3-6.6,1.2-9.8-.9-2.9-3.6-5.3-6.8-4.1s-7.7,5.8-9.6,9.5-3.1,8.3.2,11.6Z"/>
          <path class="st0" d="M299.3,309.1c0-7.8,5.2-15,11.7-19.1,2-1.2,5.3-2.5,7.2-.7,7.2,6.6-1.4,17-8.3,19.6-3,1.2-8.7,1.7-10.7.2Z"/>
        </g>
        <path class="st0" d="M267.9,401.9c0-1.8,0-3.8,1.3-5.1,1.2-1.2,2.7-1.5,4.4-1.5,3.4,0,6.8,1.9,7.2,5.5.4,3.1-.7,6.6-3.9,7.9-2.3.9-6,.3-7.8-1.4-2.5-2.3-1.7-6-.7-8.7"/>
        <path class="st0" d="M291.1,392.2c-2.4,3.1-5.3,6.3-6.5,10-1,3,.1,5.2,2.7,6.8,1.7,1,5,1.1,6.8.3,2.3-1,3.3-3.8,3.1-5.9-.3-2.5-2.2-5.4-3.5-7.6s-1.7-2.5-2.6-3.7"/>
        <path class="st0" d="M276.7,392.6c1.5.9,4.8,2.1,4.8,2.1,0,0,2.9-1.7,4.1-2.6s2.6-1.7,3.7-2.8.4-.3.5-.7-2.4-5.8-2.9-7-.7-.9-1.7-.9c-1.5,0-6.8-.1-7.4.2s-3.7,6.1-3.7,6.1l2.7,5.5Z"/>
      </g>
    </g>
  </g>
</svg>